<?xml version="1.0" encoding="utf-8"?>
<svg version="1.1" width="1000" height="356" viewBox="0 0 1000 356" xmlns="http://www.w3.org/2000/svg">
  <g transform="matrix(1,0,0,1,-0.6060536250627138,0.621535256102618)">
    <svg viewBox="0 0 396 141" data-background-color="#ffffff" preserveAspectRatio="xMidYMid meet" height="356" width="1000" xmlns="http://www.w3.org/2000/svg">
      <g id="tight-bounds" transform="matrix(1,0,0,1,0.23999723552483943,-0.24616986266985919)">
        <svg viewBox="0 0 395.5199999999999 141.4923380307851" height="141.4923380307851" width="395.5199999999999">
          <g>
            <svg viewBox="0 0 395.5199999999999 141.4923380307851" height="141.4923380307851" width="395.5199999999999">
              <g transform="matrix(1,0,0,1,0,103.73386547708581)">
                <svg viewBox="0 0 395.5199999999999 37.75847255369928" height="37.75847255369928" width="395.5199999999999">
                  <g id="textblocktransform">
                    <svg viewBox="0 0 395.5199999999999 37.75847255369928" height="37.75847255369928" width="395.5199999999999" id="textblock">
                      <g>
                        <svg viewBox="0 0 395.5199999999999 37.75847255369928" height="37.75847255369928" width="395.5199999999999">
                          <g transform="matrix(1,0,0,1,0,0)">
                            <svg width="395.5199999999999" viewBox="2.5999999046325684 -33.400001525878906 356.1199951171875 34" height="37.75847255369928" data-palette-color="#ff908b">
                              <path d="M16.9 0.6L16.9 0.6Q13.8 0.6 11.2-0.55 8.6-1.7 6.68-3.88 4.75-6.05 3.68-9.22 2.6-12.4 2.6-16.4L2.6-16.4Q2.6-20.35 3.7-23.5 4.8-26.65 6.75-28.85 8.7-31.05 11.35-32.23 14-33.4 17.15-33.4L17.15-33.4Q20.15-33.4 22.43-32.18 24.7-30.95 26.15-29.35L26.15-29.35 23.9-26.65Q22.6-28.05 20.95-28.9 19.3-29.75 17.2-29.75L17.2-29.75Q14.85-29.75 12.95-28.83 11.05-27.9 9.7-26.18 8.35-24.45 7.63-22 6.9-19.55 6.9-16.5L6.9-16.5Q6.9-13.4 7.63-10.93 8.35-8.45 9.65-6.7 10.95-4.95 12.83-4 14.7-3.05 17.05-3.05L17.05-3.05Q19.45-3.05 21.25-4.03 23.05-5 24.65-6.75L24.65-6.75 26.95-4.15Q25-1.9 22.55-0.65 20.1 0.6 16.9 0.6ZM38.7-18.35L38.7-18.35 37.15-13.35 47-13.35 45.45-18.35Q44.55-21.1 43.75-23.83 42.95-26.55 42.15-29.4L42.15-29.4 41.95-29.4Q41.2-26.55 40.4-23.83 39.6-21.1 38.7-18.35ZM32.95 0L28.7 0 39.8-32.8 44.5-32.8 55.6 0 51.15 0 48.05-10 36.1-10 32.95 0ZM64.4 0L60.25 0 60.25-32.8 69.59-32.8Q72.34-32.8 74.62-32.3 76.9-31.8 78.5-30.68 80.09-29.55 81-27.7 81.9-25.85 81.9-23.15L81.9-23.15Q81.9-20.55 81.02-18.65 80.15-16.75 78.55-15.5 76.95-14.25 74.72-13.63 72.5-13 69.8-13L69.8-13 64.4-13 64.4 0ZM64.4-29.45L64.4-16.4 69.3-16.4Q73.59-16.4 75.67-18.03 77.75-19.65 77.75-23.15L77.75-23.15Q77.75-26.7 75.57-28.08 73.4-29.45 69.09-29.45L69.09-29.45 64.4-29.45ZM98.34 0L94.14 0 94.14-29.3 84.24-29.3 84.24-32.8 108.24-32.8 108.24-29.3 98.34-29.3 98.34 0ZM118.29 0L114.14 0 114.14-32.8 118.29-32.8 118.29 0ZM138.14 0L133.29 0 122.79-32.8 127.24-32.8 132.49-15.1Q133.39-12.15 134.06-9.65 134.74-7.15 135.69-4.25L135.69-4.25 135.89-4.25Q136.79-7.15 137.49-9.65 138.19-12.15 139.04-15.1L139.04-15.1 144.29-32.8 148.54-32.8 138.14 0ZM157.99-18.35L157.99-18.35 156.44-13.35 166.29-13.35 164.74-18.35Q163.84-21.1 163.04-23.83 162.24-26.55 161.44-29.4L161.44-29.4 161.24-29.4Q160.49-26.55 159.69-23.83 158.89-21.1 157.99-18.35ZM152.24 0L147.99 0 159.09-32.8 163.79-32.8 174.89 0 170.44 0 167.34-10 155.39-10 152.24 0ZM187.78 0L183.58 0 183.58-29.3 173.68-29.3 173.68-32.8 197.68-32.8 197.68-29.3 187.78-29.3 187.78 0ZM222.98 0L203.58 0 203.58-32.8 222.48-32.8 222.48-29.3 207.73-29.3 207.73-19 220.18-19 220.18-15.45 207.73-15.45 207.73-3.55 222.98-3.55 222.98 0ZM252.33 0.6L252.33 0.6Q249.23 0.6 246.63-0.55 244.03-1.7 242.1-3.88 240.18-6.05 239.1-9.22 238.03-12.4 238.03-16.4L238.03-16.4Q238.03-20.35 239.13-23.5 240.23-26.65 242.18-28.85 244.13-31.05 246.78-32.23 249.43-33.4 252.58-33.4L252.58-33.4Q255.58-33.4 257.85-32.18 260.13-30.95 261.58-29.35L261.58-29.35 259.33-26.65Q258.03-28.05 256.38-28.9 254.73-29.75 252.63-29.75L252.63-29.75Q250.28-29.75 248.38-28.83 246.48-27.9 245.13-26.18 243.78-24.45 243.05-22 242.33-19.55 242.33-16.5L242.33-16.5Q242.33-13.4 243.05-10.93 243.78-8.45 245.08-6.7 246.38-4.95 248.25-4 250.13-3.05 252.48-3.05L252.48-3.05Q254.88-3.05 256.68-4.03 258.48-5 260.08-6.75L260.08-6.75 262.38-4.15Q260.43-1.9 257.98-0.65 255.53 0.6 252.33 0.6ZM286.97 0L268.47 0 268.47-32.8 272.62-32.8 272.62-3.55 286.97-3.55 286.97 0ZM296.92 0L292.77 0 292.77-32.8 296.92-32.8 296.92 0ZM318.32 0.6L318.32 0.6Q315.22 0.6 312.62-0.55 310.02-1.7 308.09-3.88 306.17-6.05 305.09-9.22 304.02-12.4 304.02-16.4L304.02-16.4Q304.02-20.35 305.12-23.5 306.22-26.65 308.17-28.85 310.12-31.05 312.77-32.23 315.42-33.4 318.57-33.4L318.57-33.4Q321.57-33.4 323.84-32.18 326.12-30.95 327.57-29.35L327.57-29.35 325.32-26.65Q324.02-28.05 322.37-28.9 320.72-29.75 318.62-29.75L318.62-29.75Q316.27-29.75 314.37-28.83 312.47-27.9 311.12-26.18 309.77-24.45 309.04-22 308.32-19.55 308.32-16.5L308.32-16.5Q308.32-13.4 309.04-10.93 309.77-8.45 311.07-6.7 312.37-4.95 314.24-4 316.12-3.05 318.47-3.05L318.47-3.05Q320.87-3.05 322.67-4.03 324.47-5 326.07-6.75L326.07-6.75 328.37-4.15Q326.42-1.9 323.97-0.65 321.52 0.6 318.32 0.6ZM338.62 0L334.47 0 334.47-32.8 338.62-32.8 338.62-16.35 338.77-16.35 352.42-32.8 357.12-32.8 346.87-20.3 358.72 0 354.07 0 344.27-17.05 338.62-10.4 338.62 0Z" opacity="1" transform="matrix(1,0,0,1,0,0)" fill="#ff908b" class="wordmark-text-0" data-fill-palette-color="primary" id="text-0"/>
                            </svg>
                          </g>
                        </svg>
                      </g>
                    </svg>
                  </g>
                </svg>
              </g>
              <g transform="matrix(1,0,0,1,154.80693642804417,0)">
                <svg viewBox="0 0 85.90612714391159 85.90612714391159" height="85.90612714391159" width="85.90612714391159">
                  <g>
                    <svg/>
                  </g>
                  <g id="icon-0">
                    <svg viewBox="0 0 85.90612714391159 85.90612714391159" height="85.90612714391159" width="85.90612714391159">
                      <g>
                        <path d="M0 42.953c0-23.722 19.231-42.953 42.953-42.953 23.722 0 42.953 19.231 42.953 42.953 0 23.722-19.231 42.953-42.953 42.953-23.722 0-42.953-19.231-42.953-42.953zM42.953 82.501c21.842 0 39.548-17.706 39.548-39.548 0-21.842-17.706-39.548-39.548-39.548-21.842 0-39.548 17.706-39.548 39.548 0 21.842 17.706 39.548 39.548 39.548z" data-fill-palette-color="accent" fill="#ff908b" stroke="transparent"/>
                      </g>
                      <g transform="matrix(1,0,0,1,22.711855698842495,23.6303825587254)">
                        <svg viewBox="0 0 40.4824157462266 38.64536202646079" height="38.64536202646079" width="40.4824157462266">
                          <g>
                            <svg xmlns="http://www.w3.org/2000/svg" version="1.1" x="0" y="0" viewBox="9.799999237060547 13 72.489501953125 69.19999694824219" style="enable-background:new 0 0 90 90;" height="38.64536202646079" width="40.4824157462266" class="icon-s-0" data-fill-palette-color="accent" id="s-0">
                              <g fill="#ff908b" data-fill-palette-color="accent">
                                <path d="M61.7 82.2c-2.7 0-5.5-0.6-8.2-1.9L25.3 67c-1.7-0.8-3-2.2-3.6-4-0.6-1.8-0.5-3.7 0.3-5.4 0.1-0.3 0.4-0.6 0.7-0.7 2.9-1.8 8.7-2.6 12-1.1l-13-20.9c-1-1.6-1.3-3.5-0.9-5.3 0.4-1.8 1.6-3.4 3.2-4.4l0 0c3.3-2 7.7-1 9.7 2.3l5.8 9.4c0.5-0.5 1-1 1.6-1.3 2.1-1.3 4.7-1.4 6.8-0.3 0.6-1.1 1.4-2 2.5-2.7 2.1-1.3 4.7-1.4 6.8-0.3 0.6-1.1 1.4-2 2.5-2.7 1.7-1 3.7-1.3 5.6-0.8 1.8 0.5 3.3 1.6 4.2 3.2l10.3 18.8c5 9.2 1.8 19.2-3.7 25C72 79.9 66.9 82.2 61.7 82.2zM24.9 59.6c-0.2 0.7-0.2 1.5 0.1 2.2 0.3 0.9 1 1.6 1.8 2L55 77.1c7.6 3.6 14.6 0.3 18.6-3.9 4.6-4.9 7.4-13.3 3.2-20.9L66.4 33.4c-0.4-0.7-1.1-1.3-2-1.5-1-0.3-2-0.1-2.9 0.4-1 0.6-1.6 1.6-1.7 2.8-0.1 0.7-0.5 1.3-1.2 1.6-0.7 0.2-1.4 0-1.9-0.5-1.1-1.3-3.1-1.6-4.6-0.7-1 0.6-1.6 1.6-1.7 2.8-0.1 0.7-0.5 1.3-1.2 1.6-0.7 0.2-1.4 0-1.9-0.5-1.1-1.3-3.1-1.6-4.6-0.7-0.8 0.5-1.4 1.3-1.6 2.3-0.2 0.7-0.7 1.2-1.4 1.4-0.7 0.1-1.4-0.2-1.8-0.8l-7.4-12c-1-1.7-3.2-2.2-4.9-1.1-0.8 0.5-1.4 1.3-1.6 2.2-0.2 0.9-0.1 1.9 0.4 2.7l16.1 26c0.4 0.7 0.3 1.5-0.2 2.1-0.5 0.6-1.4 0.8-2.1 0.4L33.2 59C31.3 58.1 27.2 58.5 24.9 59.6z" fill="#ff908b" data-fill-palette-color="accent"/>
                              </g>
                              <g fill="#ff908b" data-fill-palette-color="accent">
                                <path d="M21.8 46.5c-0.2 0-0.4 0-0.6-0.1-6.8-2.4-11.4-8.9-11.4-16.2 0-9.5 7.7-17.2 17.2-17.2 8.4 0 15.7 6.3 17 14.5 0.1 1-0.5 1.9-1.5 2-1 0.1-1.9-0.5-2-1.5-1-6.6-6.8-11.5-13.5-11.5-7.5 0-13.6 6.1-13.6 13.6 0 5.8 3.6 10.9 9.1 12.9 0.9 0.3 1.4 1.3 1.1 2.3C23.2 46 22.5 46.5 21.8 46.5z" fill="#ff908b" data-fill-palette-color="accent"/>
                              </g>
                            </svg>
                          </g>
                        </svg>
                      </g>
                    </svg>
                  </g>
                </svg>
              </g>
              <g/>
            </svg>
          </g>
        </svg>
        <rect width="395.5199999999999" height="141.4923380307851" fill="none" stroke="none" visibility="hidden"/>
      </g>
    </svg>
  </g>
</svg>