<svg xmlns="http://www.w3.org/2000/svg" width="128" height="128" viewBox="0 0 128 128">
  <g transform="matrix(0.8046875,0,0,0.8046875,12.760752631578946,14.993986531033372)">
    <g id="tight-bounds" transform="matrix(1,0,0,1,-0.24049999999999727,-0.07408523901612796)">
      <g id="textblocktransform">
        <svg xmlns="http://www.w3.org/2000/svg" x="0" y="0" viewBox="9.8 13 72.48949886045634 69.2" style="enable-background:new 0 0 90 90;" class="icon-icon-0" data-fill-palette-color="accent" id="icon-0">
          <g fill="#ff908b" data-fill-palette-color="accent">
            <path d="M61.7 82.2c-2.7 0-5.5-0.6-8.2-1.9L25.3 67c-1.7-0.8-3-2.2-3.6-4-0.6-1.8-0.5-3.7 0.3-5.4 0.1-0.3 0.4-0.6 0.7-0.7 2.9-1.8 8.7-2.6 12-1.1l-13-20.9c-1-1.6-1.3-3.5-0.9-5.3 0.4-1.8 1.6-3.4 3.2-4.4l0 0c3.3-2 7.7-1 9.7 2.3l5.8 9.4c0.5-0.5 1-1 1.6-1.3 2.1-1.3 4.7-1.4 6.8-0.3 0.6-1.1 1.4-2 2.5-2.7 2.1-1.3 4.7-1.4 6.8-0.3 0.6-1.1 1.4-2 2.5-2.7 1.7-1 3.7-1.3 5.6-0.8 1.8 0.5 3.3 1.6 4.2 3.2l10.3 18.8c5 9.2 1.8 19.2-3.7 25C72 79.9 66.9 82.2 61.7 82.2zM24.9 59.6c-0.2 0.7-0.2 1.5 0.1 2.2 0.3 0.9 1 1.6 1.8 2L55 77.1c7.6 3.6 14.6 0.3 18.6-3.9 4.6-4.9 7.4-13.3 3.2-20.9L66.4 33.4c-0.4-0.7-1.1-1.3-2-1.5-1-0.3-2-0.1-2.9 0.4-1 0.6-1.6 1.6-1.7 2.8-0.1 0.7-0.5 1.3-1.2 1.6-0.7 0.2-1.4 0-1.9-0.5-1.1-1.3-3.1-1.6-4.6-0.7-1 0.6-1.6 1.6-1.7 2.8-0.1 0.7-0.5 1.3-1.2 1.6-0.7 0.2-1.4 0-1.9-0.5-1.1-1.3-3.1-1.6-4.6-0.7-0.8 0.5-1.4 1.3-1.6 2.3-0.2 0.7-0.7 1.2-1.4 1.4-0.7 0.1-1.4-0.2-1.8-0.8l-7.4-12c-1-1.7-3.2-2.2-4.9-1.1-0.8 0.5-1.4 1.3-1.6 2.2-0.2 0.9-0.1 1.9 0.4 2.7l16.1 26c0.4 0.7 0.3 1.5-0.2 2.1-0.5 0.6-1.4 0.8-2.1 0.4L33.2 59C31.3 58.1 27.2 58.5 24.9 59.6z" fill="#ff908b" data-fill-palette-color="accent"></path>
          </g>
          <g fill="#ff908b" data-fill-palette-color="accent">
            <path d="M21.8 46.5c-0.2 0-0.4 0-0.6-0.1-6.8-2.4-11.4-8.9-11.4-16.2 0-9.5 7.7-17.2 17.2-17.2 8.4 0 15.7 6.3 17 14.5 0.1 1-0.5 1.9-1.5 2-1 0.1-1.9-0.5-2-1.5-1-6.6-6.8-11.5-13.5-11.5-7.5 0-13.6 6.1-13.6 13.6 0 5.8 3.6 10.9 9.1 12.9 0.9 0.3 1.4 1.3 1.1 2.3C23.2 46 22.5 46.5 21.8 46.5z" fill="#ff908b" data-fill-palette-color="accent"></path>
          </g>s
        </svg>
      </g>
    </g>
  </g>
</svg>
